<svg width="24" height="24" viewBox="0 0 24 24" fill="none" xmlns="http://www.w3.org/2000/svg">
<path d="M5.75 14.9854C5.75 14.5711 5.41421 14.2354 5 14.2354C4.58579 14.2354 4.25 14.5711 4.25 14.9854H5H5.75ZM5 15.9844H4.25H5ZM19.75 14.9854C19.75 14.5711 19.4142 14.2354 19 14.2354C18.5858 14.2354 18.25 14.5711 18.25 14.9854H19H19.75ZM11.4146 15.5156C11.1557 15.8389 11.2079 16.3109 11.5312 16.5698C11.8545 16.8287 12.3265 16.7765 12.5854 16.4532L12 15.9844L11.4146 15.5156ZM16.5854 11.4581C16.8443 11.1347 16.7921 10.6627 16.4688 10.4038C16.1455 10.1449 15.6735 10.1971 15.4146 10.5205L16 10.9893L16.5854 11.4581ZM11.4146 16.4532C11.6735 16.7765 12.1455 16.8287 12.4688 16.5698C12.7921 16.3109 12.8443 15.8389 12.5854 15.5156L12 15.9844L11.4146 16.4532ZM8.58543 10.5205C8.32652 10.1971 7.85452 10.1449 7.5312 10.4038C7.20788 10.6627 7.15566 11.1347 7.41457 11.4581L8 10.9893L8.58543 10.5205ZM11.25 15.9844C11.25 16.3986 11.5858 16.7344 12 16.7344C12.4142 16.7344 12.75 16.3986 12.75 15.9844H12H11.25ZM12.75 4.99512C12.75 4.5809 12.4142 4.24512 12 4.24512C11.5858 4.24512 11.25 4.5809 11.25 4.99512H12H12.75ZM5 14.9854H4.25V15.9844H5H5.75V14.9854H5ZM5 15.9844H4.25C4.25 18.0545 5.92962 19.7314 8 19.7314V18.9814V18.2314C6.75667 18.2314 5.75 17.2247 5.75 15.9844H5ZM8 18.9814V19.7314H16V18.9814V18.2314H8V18.9814ZM16 18.9814V19.7314C18.0704 19.7314 19.75 18.0545 19.75 15.9844H19H18.25C18.25 17.2247 17.2433 18.2314 16 18.2314V18.9814ZM19 15.9844H19.75V14.9854H19H18.25V15.9844H19ZM12 15.9844L12.5854 16.4532L16.5854 11.4581L16 10.9893L15.4146 10.5205L11.4146 15.5156L12 15.9844ZM12 15.9844L12.5854 15.5156L8.58543 10.5205L8 10.9893L7.41457 11.4581L11.4146 16.4532L12 15.9844ZM12 15.9844H12.75V4.99512H12H11.25V15.9844H12Z" fill="white"/>
</svg>
