<svg width="69" height="44" viewBox="0 0 69 44" fill="none" xmlns="http://www.w3.org/2000/svg">
<mask id="path-1-inside-1_202_698" fill="white">
<path d="M0 0H69V44H0V0Z"/>
</mask>
<path d="M69 44V43H0V44V45H69V44Z" fill="#EAECF0" mask="url(#path-1-inside-1_202_698)"/>
<path d="M36.8333 25.3333C37.0985 25.3333 37.3528 25.4387 37.5404 25.6262C37.7279 25.8138 37.8333 26.0681 37.8333 26.3333C37.8333 26.5985 37.7279 26.8529 37.5404 27.0404C37.3528 27.228 37.0985 27.3333 36.8333 27.3333C36.568 27.3333 36.3137 27.228 36.1261 27.0404C35.9386 26.8529 35.8333 26.5985 35.8333 26.3333C35.8333 26.0681 35.9386 25.8138 36.1261 25.6262C36.3137 25.4387 36.568 25.3333 36.8333 25.3333ZM36.8333 20.6667C37.0985 20.6667 37.3528 20.772 37.5404 20.9596C37.7279 21.1471 37.8333 21.4015 37.8333 21.6667C37.8333 21.9319 37.7279 22.1862 37.5404 22.3738C37.3528 22.5613 37.0985 22.6667 36.8333 22.6667C36.568 22.6667 36.3137 22.5613 36.1261 22.3738C35.9386 22.1862 35.8333 21.9319 35.8333 21.6667C35.8333 21.4015 35.9386 21.1471 36.1261 20.9596C36.3137 20.772 36.568 20.6667 36.8333 20.6667ZM36.8333 16C37.0985 16 37.3528 16.1054 37.5404 16.2929C37.7279 16.4804 37.8333 16.7348 37.8333 17C37.8333 17.2652 37.7279 17.5196 37.5404 17.7071C37.3528 17.8946 37.0985 18 36.8333 18C36.568 18 36.3137 17.8946 36.1261 17.7071C35.9386 17.5196 35.8333 17.2652 35.8333 17C35.8333 16.7348 35.9386 16.4804 36.1261 16.2929C36.3137 16.1054 36.568 16 36.8333 16Z" fill="#667085"/>
</svg>
