<svg width="16" height="14" viewBox="0 0 16 14" fill="none" xmlns="http://www.w3.org/2000/svg">
<path fill-rule="evenodd" clip-rule="evenodd" d="M3.74798 12.3488C3.08989 12.4623 2.41458 12.2908 1.89038 11.877C1.36619 11.4633 1.0425 10.8463 0.999984 10.1798V3.01782C0.969367 2.26628 1.42648 1.58061 2.13198 1.31982C4.20413 0.55938 6.53053 1.14177 7.99998 2.78882V13.0098C7.01498 12.1818 5.31298 12.1318 3.74798 12.3488Z" stroke="black" stroke-width="1.5" stroke-linecap="round" stroke-linejoin="round"/>
<path fill-rule="evenodd" clip-rule="evenodd" d="M12.252 12.3488C12.9101 12.4623 13.5854 12.2908 14.1096 11.877C14.6338 11.4633 14.9575 10.8463 15 10.1798V3.01782C15.0306 2.26628 14.5735 1.58061 13.868 1.31982C11.7959 0.55938 9.46945 1.14177 8 2.78882V13.0098C8.985 12.1818 10.687 12.1318 12.252 12.3488Z" stroke="black" stroke-width="1.5" stroke-linecap="round" stroke-linejoin="round"/>
<path d="M5.5 6.75977C5.91421 6.75977 6.25 6.42398 6.25 6.00977C6.25 5.59555 5.91421 5.25977 5.5 5.25977V6.00977V6.75977ZM3.5 5.25977C3.08579 5.25977 2.75 5.59555 2.75 6.00977C2.75 6.42398 3.08579 6.75977 3.5 6.75977V6.00977V5.25977ZM5.5 8.75977C5.91421 8.75977 6.25 8.42398 6.25 8.00977C6.25 7.59555 5.91421 7.25977 5.5 7.25977V8.00977V8.75977ZM3.5 7.25977C3.08579 7.25977 2.75 7.59555 2.75 8.00977C2.75 8.42398 3.08579 8.75977 3.5 8.75977V8.00977V7.25977ZM12.5 6.75977C12.9142 6.75977 13.25 6.42398 13.25 6.00977C13.25 5.59555 12.9142 5.25977 12.5 5.25977V6.00977V6.75977ZM10.5 5.25977C10.0858 5.25977 9.75 5.59555 9.75 6.00977C9.75 6.42398 10.0858 6.75977 10.5 6.75977V6.00977V5.25977ZM12.5 8.75977C12.9142 8.75977 13.25 8.42398 13.25 8.00977C13.25 7.59555 12.9142 7.25977 12.5 7.25977V8.00977V8.75977ZM10.5 7.25977C10.0858 7.25977 9.75 7.59555 9.75 8.00977C9.75 8.42398 10.0858 8.75977 10.5 8.75977V8.00977V7.25977ZM5.5 6.00977V5.25977H3.5V6.00977V6.75977H5.5V6.00977ZM5.5 8.00977V7.25977H3.5V8.00977V8.75977H5.5V8.00977ZM12.5 6.00977V5.25977H10.5V6.00977V6.75977H12.5V6.00977ZM12.5 8.00977V7.25977H10.5V8.00977V8.75977H12.5V8.00977Z" fill="black"/>
</svg>
