<svg width="54" height="54" viewBox="0 0 54 54" fill="none" xmlns="http://www.w3.org/2000/svg">
<circle cx="27" cy="27" r="27" fill="#F8F8F8"/>
<path d="M15 38.8524C15 34.8306 17.9097 31.4049 21.8641 30.7711L22.2203 30.714C25.3867 30.2064 28.6133 30.2064 31.7797 30.714L32.1359 30.7711C36.0903 31.4049 39 34.8306 39 38.8524C39 40.5908 37.5969 42 35.8661 42H18.1339C16.4031 42 15 40.5908 15 38.8524Z" stroke="#363853" stroke-width="1.5"/>
<path d="M34 18.5625C34 22.1869 30.866 25.125 27 25.125C23.134 25.125 20 22.1869 20 18.5625C20 14.9381 23.134 12 27 12C30.866 12 34 14.9381 34 18.5625Z" stroke="#363853" stroke-width="1.5"/>
</svg>
