<svg width="14" height="16" viewBox="0 0 14 16" fill="none" xmlns="http://www.w3.org/2000/svg">
<path d="M11.5081 1H2.49186C1.2815 1 0.576676 2.42816 1.27882 3.45795L4.35362 7.96759C4.71292 8.49456 4.90601 9.12542 4.90601 9.77237V12.9228C4.90601 14.07 5.79636 15 6.89467 15C7.99298 15 8.88333 14.07 8.88333 12.9228V9.81884C8.88333 9.14319 9.0939 8.48591 9.48322 7.94634L12.6973 3.4918C13.4369 2.46679 12.7369 1 11.5081 1Z" stroke="#0095FF" stroke-width="1.5" stroke-linecap="round" stroke-linejoin="round"/>
<path d="M8.88333 9.6294C8.88333 8.96827 9.0939 8.3251 9.48322 7.79713L12.6973 3.43828C13.4369 2.43528 12.7369 1 11.5081 1H2.49186C1.2815 1 0.576676 2.39748 1.27882 3.40515L4.35362 7.81792C4.71292 8.33357 4.90601 8.95088 4.90601 9.58393V12.6667" stroke="#363853" stroke-width="1.5" stroke-linecap="round" stroke-linejoin="round"/>
</svg>
