<svg width="12" height="16" viewBox="0 0 12 16" fill="none" xmlns="http://www.w3.org/2000/svg">
<path fill-rule="evenodd" clip-rule="evenodd" d="M10.167 4.99121H1.833C1.37295 4.99121 1 5.36379 1 5.8234V12.4839C1 13.8633 2.11929 14.9814 3.5 14.9814H8.5C9.16304 14.9814 9.79893 14.7183 10.2678 14.2499C10.7366 13.7815 11 13.1463 11 12.4839V5.8234C11 5.36379 10.6271 4.99121 10.167 4.99121Z" stroke="white" stroke-width="1.5" stroke-linecap="round" stroke-linejoin="round"/>
<path fill-rule="evenodd" clip-rule="evenodd" d="M9 2.99325L8.894 2.78245C8.3459 1.68707 7.22531 0.995117 5.9995 0.995117C4.77369 0.995117 3.6531 1.68707 3.105 2.78245L3 2.99325H9Z" stroke="white" stroke-width="1.5" stroke-linecap="round" stroke-linejoin="round"/>
<path d="M5.083 8.32096C5.083 7.90674 4.74721 7.57096 4.333 7.57096C3.91879 7.57096 3.583 7.90674 3.583 8.32096H4.333H5.083ZM3.583 11.6507C3.583 12.0649 3.91879 12.4007 4.333 12.4007C4.74721 12.4007 5.083 12.0649 5.083 11.6507H4.333H3.583ZM8.417 8.32096C8.417 7.90674 8.08121 7.57096 7.667 7.57096C7.25279 7.57096 6.917 7.90674 6.917 8.32096H7.667H8.417ZM6.917 11.6507C6.917 12.0649 7.25279 12.4007 7.667 12.4007C8.08121 12.4007 8.417 12.0649 8.417 11.6507H7.667H6.917ZM9 2.24316C8.58579 2.24316 8.25 2.57895 8.25 2.99316C8.25 3.40738 8.58579 3.74316 9 3.74316V2.99316V2.24316ZM11 3.74316C11.4142 3.74316 11.75 3.40738 11.75 2.99316C11.75 2.57895 11.4142 2.24316 11 2.24316V2.99316V3.74316ZM3 3.74316C3.41421 3.74316 3.75 3.40738 3.75 2.99316C3.75 2.57895 3.41421 2.24316 3 2.24316V2.99316V3.74316ZM1 2.24316C0.585786 2.24316 0.25 2.57895 0.25 2.99316C0.25 3.40738 0.585786 3.74316 1 3.74316V2.99316V2.24316ZM4.333 8.32096H3.583V11.6507H4.333H5.083V8.32096H4.333ZM7.667 8.32096H6.917V11.6507H7.667H8.417V8.32096H7.667ZM9 2.99316V3.74316H11V2.99316V2.24316H9V2.99316ZM3 2.99316V2.24316H1V2.99316V3.74316H3V2.99316Z" fill="white"/>
</svg>
